# xmcd
#
# Track frame offsets: 
#        150
#        18972
#        41942
#        59156
#        78902
#        99411
#        118840
#        133987
#        157866
#        174981
#        193243
#        210986
#        233561
#        248877
#
# Disc length: 3620 seconds
#
# Revision: 2
# Processed by: cddbd v1.5.1PL2 Copyright (c) Steve Scherf et al.
# Submitted via: ExactAudioCopy v0.95b4
#
DISCID=bc0e220e
DTITLE=Various Artist - 絕對發燒 Vol.2
DYEAR=2005
DGENRE=Pop
TTITLE0=初次嘗到寂寞
TTITLE1=一面湖水
TTITLE2=思念誰
TTITLE3=一天一萬年
TTITLE4=無聲的雨
TTITLE5=總有一天等到你
TTITLE6=我的幸福
TTITLE7=天堂
TTITLE8=乾杯朋友
TTITLE9=女人花
TTITLE10=怨蒼天變了心
TTITLE11=雨夜的浪漫
TTITLE12=不了情
TTITLE13=一生的朋友(原名昨日重現)
EXTD=
EXTT0=
EXTT1=
EXTT2=
EXTT3=
EXTT4=
EXTT5=
EXTT6=
EXTT7=
EXTT8=
EXTT9=
EXTT10=
EXTT11=
EXTT12=
EXTT13=
PLAYORDER=
